<svg width="41" height="40" viewBox="0 0 41 40" fill="none" xmlns="http://www.w3.org/2000/svg">
<path id="exhit_button" d="M39.8638 32.7813H37.043C36.8228 32.7813 36.6393 32.9635 36.6393 33.1823V36.401H3.62303V3.59896H36.6445V6.81771C36.6445 7.03646 36.828 7.21875 37.0482 7.21875H39.8691C40.0893 7.21875 40.2728 7.04167 40.2728 6.81771V1.59896C40.2728 0.713541 39.5545 0 38.6631 0H1.60965C0.718314 0 0 0.713541 0 1.59896V38.401C0 39.2865 0.718314 40 1.60965 40H38.6579C39.5492 40 40.2676 39.2865 40.2676 38.401V33.1823C40.2676 32.9583 40.084 32.7813 39.8638 32.7813ZM40.8391 19.6719L33.399 13.8385C33.1211 13.6198 32.7174 13.8177 32.7174 14.1667V18.125H16.2538C16.0231 18.125 15.8344 18.3125 15.8344 18.5417V21.4583C15.8344 21.6875 16.0231 21.875 16.2538 21.875H32.7174V25.8333C32.7174 26.1823 33.1264 26.3802 33.399 26.1615L40.8391 20.3281C40.8892 20.2891 40.9297 20.2393 40.9576 20.1825C40.9855 20.1256 41 20.0632 41 20C41 19.9368 40.9855 19.8744 40.9576 19.8175C40.9297 19.7606 40.8892 19.7109 40.8391 19.6719Z" fill="#40BA21"/>
</svg>
